# xmcd
#
# Track frame offsets: 
#        150
#        12453
#        37773
#        65577
#        89560
#        117649
#        141378
#        160452
#        176948
#        196417
#        213129
#        227327
#        253499
#        275695
#        296456
#        313336
#
# Disc length: 4381 seconds
#
# Revision: 0
# Processed by: cddbd v1.5.2PL0 Copyright (c) Steve Scherf et al.
# Submitted via: ExactAudioCopy v1.0b3
#
DISCID=fd111b10
DTITLE=Forhat - Girls to Chat and Boys to Bounce - In the Mood for Somet
DTITLE=hing Rude
DYEAR=2012
DGENRE=Rock
TTITLE0=Wide Boy
TTITLE1=Let Me Get Close to You
TTITLE2=Live Now - Pay Later
TTITLE3=Love Zone
TTITLE4=Delayed Reaction
TTITLE5=Second Childhood
TTITLE6=Weekend Driver
TTITLE7=Sing About Love [Live] [Live]
TTITLE8=Slipped, Tripped, Fell in Love
TTITLE9=Bustin' Up or Bustin' Out
TTITLE10=Take This Heart of Mine
TTITLE11=Love Rustler
TTITLE12=Ain't Livin' Long Like This
TTITLE13=Back for a Taste of Your Love
TTITLE14=There Ain't No Man That Can't Be Caught
TTITLE15=And I Do Just What I Want
EXTD=
EXTT0=
EXTT1=
EXTT2=
EXTT3=
EXTT4=
EXTT5=
EXTT6=
EXTT7=
EXTT8=
EXTT9=
EXTT10=
EXTT11=
EXTT12=
EXTT13=
EXTT14=
EXTT15=
PLAYORDER=
